# xmcd
#
# Track frame offsets:
#	150
#	21622
#	39814
#	60232
#	82066
#	100187
#	121813
#	140762
#	170589
#	195767
#	209355
#	229128
#
# Disc length: 3220 seconds
#
# Revision: 0
# Processed by: cddbd v1.5.1PL0 Copyright (c) Steve Scherf et al.
# Submitted via: dBpowerAMP V4.0
#
DISCID=9c0c920c
DTITLE=New Spirit - This Is The Hour
DYEAR=1900
DGENRE=
TTITLE0=This Is The Hour
TTITLE1=My Jesus, I Love Thee
TTITLE2=Love Is The Answer
TTITLE3=Old Rugged Cross
TTITLE4=Take The land
TTITLE5=Same Old Fashioned Way
TTITLE6=Mercy Came Running
TTITLE7=Move Mountain
TTITLE8=Always Deeper Still
TTITLE9=Lord, You Wil Work A Miracle
TTITLE10=Give Me This Water
TTITLE11=In Your Presence
EXTD=Southern Gospel
EXTT0=
EXTT1=
EXTT2=
EXTT3=
EXTT4=
EXTT5=
EXTT6=
EXTT7=
EXTT8=
EXTT9=
EXTT10=
EXTT11=
PLAYORDER=
